<svg preserveAspectRatio="none" overflow="visible" style="display: block;" width="16" height="16" viewBox="0 0 16 16"
     fill="none" xmlns="http://www.w3.org/2000/svg">
    <g id="Edit/Hero/Icon/CurrentMembers">
        <path id="Vector"
              d="M11 7H5C4.00589 7 3.2 7.80589 3.2 8.8V11.7C3.2 12.6941 4.00589 13.5 5 13.5H11C11.9941 13.5 12.8 12.6941 12.8 11.7V8.8C12.8 7.80589 11.9941 7 11 7Z"
              stroke="#7A7A7A" stroke-width="1.3"/>
        <path id="Vector_2"
              d="M5.2 7V5.4C5.2 4.65739 5.495 3.9452 6.0201 3.4201C6.5452 2.895 7.25739 2.6 8 2.6C8.74261 2.6 9.4548 2.895 9.9799 3.4201C10.505 3.9452 10.8 4.65739 10.8 5.4V7"
              stroke="#7A7A7A" stroke-width="1.3" stroke-linecap="round"/>
    </g>
</svg>
